<mxfile host="Electron" agent="Mozilla/5.0 (Macintosh; Intel Mac OS X 10_15_7) AppleWebKit/537.36 (KHTML, like Gecko) draw.io/28.2.8 Chrome/140.0.7339.240 Electron/38.4.0 Safari/537.36" version="28.2.8">
  <diagram name="Page-1" id="s-chp0Ae5LaI9Q2Slqtq">
    <mxGraphModel dx="848" dy="651" grid="1" gridSize="10" guides="1" tooltips="1" connect="1" arrows="1" fold="1" page="1" pageScale="1" pageWidth="827" pageHeight="1169" math="0" shadow="0">
      <root>
        <mxCell id="0" />
        <mxCell id="1" parent="0" />
        <mxCell id="s5IbOwy7puEW8BjSgRF2-1" value="transcription" style="swimlane;childLayout=stackLayout;horizontal=1;startSize=50;horizontalStack=0;rounded=1;fontSize=14;fontStyle=0;strokeWidth=2;resizeParent=0;resizeLast=1;shadow=0;dashed=0;align=center;arcSize=4;whiteSpace=wrap;html=1;" parent="1" vertex="1">
          <mxGeometry x="50" y="165" width="160" height="200" as="geometry" />
        </mxCell>
        <mxCell id="s5IbOwy7puEW8BjSgRF2-2" value="+ record_f_name&lt;br&gt;+ Id_fat&lt;br&gt;+ Id_reunion&lt;br&gt;key : id_transcript" style="align=left;strokeColor=none;fillColor=none;spacingLeft=4;fontSize=12;verticalAlign=top;resizable=0;rotatable=0;part=1;html=1;" parent="s5IbOwy7puEW8BjSgRF2-1" vertex="1">
          <mxGeometry y="50" width="160" height="150" as="geometry" />
        </mxCell>
        <mxCell id="s5IbOwy7puEW8BjSgRF2-3" value="segment" style="swimlane;childLayout=stackLayout;horizontal=1;startSize=50;horizontalStack=0;rounded=1;fontSize=14;fontStyle=0;strokeWidth=2;resizeParent=0;resizeLast=1;shadow=0;dashed=0;align=center;arcSize=4;whiteSpace=wrap;html=1;" parent="1" vertex="1">
          <mxGeometry x="340" y="170" width="160" height="190" as="geometry" />
        </mxCell>
        <mxCell id="s5IbOwy7puEW8BjSgRF2-8" value="" style="rounded=0;whiteSpace=wrap;html=1;fillColor=none;labelBackgroundColor=none;" parent="s5IbOwy7puEW8BjSgRF2-3" vertex="1">
          <mxGeometry y="50" width="160" as="geometry" />
        </mxCell>
        <mxCell id="s5IbOwy7puEW8BjSgRF2-4" value="key :Id_segment&lt;br&gt;+ Id_réunion&lt;br&gt;+ Id_locuteur&lt;br&gt;+ time_départ&lt;br&gt;+ time_fin&lt;br&gt;+ texte" style="align=left;strokeColor=none;fillColor=none;spacingLeft=4;fontSize=12;verticalAlign=top;resizable=0;rotatable=0;part=1;html=1;" parent="s5IbOwy7puEW8BjSgRF2-3" vertex="1">
          <mxGeometry y="50" width="160" height="140" as="geometry" />
        </mxCell>
        <mxCell id="s5IbOwy7puEW8BjSgRF2-5" value="locuteur" style="swimlane;childLayout=stackLayout;horizontal=1;startSize=50;horizontalStack=0;rounded=1;fontSize=14;fontStyle=0;strokeWidth=2;resizeParent=0;resizeLast=1;shadow=0;dashed=0;align=center;arcSize=4;whiteSpace=wrap;html=1;" parent="1" vertex="1">
          <mxGeometry x="630" y="170" width="160" height="190" as="geometry" />
        </mxCell>
        <mxCell id="s5IbOwy7puEW8BjSgRF2-6" value="key : Id_locuteur&lt;br&gt;+Id_participant&lt;br&gt;+ statut [enum]&lt;br&gt;+ temps_total_parole&lt;br&gt;+ nb_interventions&lt;br&gt;+" style="align=left;strokeColor=none;fillColor=none;spacingLeft=4;fontSize=12;verticalAlign=top;resizable=0;rotatable=0;part=1;html=1;" parent="s5IbOwy7puEW8BjSgRF2-5" vertex="1">
          <mxGeometry y="50" width="160" height="140" as="geometry" />
        </mxCell>
        <mxCell id="s5IbOwy7puEW8BjSgRF2-9" value="Base Transcription [service trancription]" style="text;html=1;strokeColor=none;fillColor=none;align=center;verticalAlign=middle;whiteSpace=wrap;rounded=0;" parent="1" vertex="1">
          <mxGeometry x="40" y="125" width="260" height="30" as="geometry" />
        </mxCell>
        <mxCell id="s5IbOwy7puEW8BjSgRF2-14" value="meeting" style="swimlane;childLayout=stackLayout;horizontal=1;startSize=50;horizontalStack=0;rounded=1;fontSize=14;fontStyle=0;strokeWidth=2;resizeParent=0;resizeLast=1;shadow=0;dashed=0;align=center;arcSize=4;whiteSpace=wrap;html=1;" parent="1" vertex="1">
          <mxGeometry x="130" y="490" width="160" height="180" as="geometry" />
        </mxCell>
        <mxCell id="s5IbOwy7puEW8BjSgRF2-15" value="Key : id_meeting&lt;br&gt;+nb_participants&lt;br&gt;+title&lt;br&gt;+description&lt;br&gt;+date et heure&lt;br&gt;+durée prévue&lt;br&gt;+durée réelle&lt;br&gt;+ statuts" style="align=left;strokeColor=none;fillColor=none;spacingLeft=4;fontSize=12;verticalAlign=top;resizable=0;rotatable=0;part=1;html=1;" parent="s5IbOwy7puEW8BjSgRF2-14" vertex="1">
          <mxGeometry y="50" width="160" height="130" as="geometry" />
        </mxCell>
        <mxCell id="s5IbOwy7puEW8BjSgRF2-16" value="participant" style="swimlane;childLayout=stackLayout;horizontal=1;startSize=50;horizontalStack=0;rounded=1;fontSize=14;fontStyle=0;strokeWidth=2;resizeParent=0;resizeLast=1;shadow=0;dashed=0;align=center;arcSize=4;whiteSpace=wrap;html=1;" parent="1" vertex="1">
          <mxGeometry x="390" y="525" width="160" height="110" as="geometry" />
        </mxCell>
        <mxCell id="s5IbOwy7puEW8BjSgRF2-17" value="Key : id_participant&lt;br&gt;+ nom&lt;br&gt;+ prénom" style="align=left;strokeColor=none;fillColor=none;spacingLeft=4;fontSize=12;verticalAlign=top;resizable=0;rotatable=0;part=1;html=1;" parent="s5IbOwy7puEW8BjSgRF2-16" vertex="1">
          <mxGeometry y="50" width="160" height="60" as="geometry" />
        </mxCell>
        <mxCell id="s5IbOwy7puEW8BjSgRF2-18" value="" style="rounded=0;whiteSpace=wrap;html=1;fillColor=none;" parent="1" vertex="1">
          <mxGeometry x="60" y="440" width="560" height="240" as="geometry" />
        </mxCell>
        <mxCell id="s5IbOwy7puEW8BjSgRF2-19" value="meeting" style="text;html=1;strokeColor=none;fillColor=none;align=center;verticalAlign=middle;whiteSpace=wrap;rounded=0;" parent="1" vertex="1">
          <mxGeometry x="60" y="440" width="60" height="30" as="geometry" />
        </mxCell>
        <mxCell id="s5IbOwy7puEW8BjSgRF2-20" style="edgeStyle=orthogonalEdgeStyle;rounded=0;orthogonalLoop=1;jettySize=auto;html=1;entryX=0;entryY=0.5;entryDx=0;entryDy=0;endArrow=none;endFill=0;" parent="1" source="s5IbOwy7puEW8BjSgRF2-2" target="s5IbOwy7puEW8BjSgRF2-4" edge="1">
          <mxGeometry relative="1" as="geometry" />
        </mxCell>
        <mxCell id="s5IbOwy7puEW8BjSgRF2-21" value="1.*" style="text;html=1;strokeColor=none;fillColor=none;align=center;verticalAlign=middle;whiteSpace=wrap;rounded=0;" parent="1" vertex="1">
          <mxGeometry x="280" y="260" width="60" height="30" as="geometry" />
        </mxCell>
        <mxCell id="s5IbOwy7puEW8BjSgRF2-22" value="1.1" style="text;html=1;strokeColor=none;fillColor=none;align=center;verticalAlign=middle;whiteSpace=wrap;rounded=0;" parent="1" vertex="1">
          <mxGeometry x="210" y="260" width="60" height="30" as="geometry" />
        </mxCell>
        <mxCell id="s5IbOwy7puEW8BjSgRF2-23" style="edgeStyle=orthogonalEdgeStyle;rounded=0;orthogonalLoop=1;jettySize=auto;html=1;endArrow=none;endFill=0;" parent="1" source="s5IbOwy7puEW8BjSgRF2-4" target="s5IbOwy7puEW8BjSgRF2-6" edge="1">
          <mxGeometry relative="1" as="geometry" />
        </mxCell>
        <mxCell id="s5IbOwy7puEW8BjSgRF2-25" value="1.1" style="text;html=1;strokeColor=none;fillColor=none;align=center;verticalAlign=middle;whiteSpace=wrap;rounded=0;" parent="1" vertex="1">
          <mxGeometry x="570" y="260" width="60" height="30" as="geometry" />
        </mxCell>
        <mxCell id="s5IbOwy7puEW8BjSgRF2-26" value="1.*" style="text;html=1;strokeColor=none;fillColor=none;align=center;verticalAlign=middle;whiteSpace=wrap;rounded=0;" parent="1" vertex="1">
          <mxGeometry x="500" y="260" width="60" height="30" as="geometry" />
        </mxCell>
        <mxCell id="s5IbOwy7puEW8BjSgRF2-27" style="edgeStyle=orthogonalEdgeStyle;rounded=0;orthogonalLoop=1;jettySize=auto;html=1;endArrow=none;endFill=0;" parent="1" source="s5IbOwy7puEW8BjSgRF2-15" target="s5IbOwy7puEW8BjSgRF2-17" edge="1">
          <mxGeometry relative="1" as="geometry" />
        </mxCell>
        <mxCell id="s5IbOwy7puEW8BjSgRF2-28" value="0.*" style="text;html=1;strokeColor=none;fillColor=none;align=center;verticalAlign=middle;whiteSpace=wrap;rounded=0;" parent="1" vertex="1">
          <mxGeometry x="290" y="580" width="30" height="30" as="geometry" />
        </mxCell>
        <mxCell id="s5IbOwy7puEW8BjSgRF2-29" value="1.*" style="text;html=1;strokeColor=none;fillColor=none;align=center;verticalAlign=middle;whiteSpace=wrap;rounded=0;" parent="1" vertex="1">
          <mxGeometry x="360" y="580" width="30" height="30" as="geometry" />
        </mxCell>
        <mxCell id="iZjB8Ez9W_HNopEM-qXf-1" value="" style="rounded=0;whiteSpace=wrap;html=1;fillColor=none;" vertex="1" parent="1">
          <mxGeometry x="40" y="120" width="760" height="260" as="geometry" />
        </mxCell>
      </root>
    </mxGraphModel>
  </diagram>
</mxfile>
